<?xml version="1.0" encoding="UTF-8" standalone="no"?><svg xmlns:svg="http://www.w3.org/2000/svg" xmlns="http://www.w3.org/2000/svg" version="1.1" style="overflow:visible" viewBox="-250 -250 500 500" height="500px" width="500px"><rect fill-opacity="0" fill="rgb(0,0,0)" height="500" width="500" y="-250" x="-250" /><svg version="1.1" y="-250" x="-308" viewBox="-250 -250 500 500" height="500px" width="500px" style="overflow:visible"><g transform="rotate(0,0,0)" stroke-linejoin="round" fill="#fff"><path stroke-linecap="butt" stroke-linejoin="round" stroke-width="6" stroke-opacity="1" stroke="rgb(0,0,0)" fill="rgb(0,0,0)" d="m0-84.84c-26.5095 0-48 21.3345-48 47.65125c0 26.3115 21.4815 47.64375 47.98575 47.65125c-8.7165 22.8285-24.97575 43.162499-46.19325 61.854l18.23175 12.529499c28.4775-22.59 75.975-64.5975 75.975-122.04c0-26.31675-21.4905-47.65125-48-47.65125z" /></g></svg><svg version="1.1" y="-250" x="-192" viewBox="-250 -250 500 500" height="500px" width="500px" style="overflow:visible"><g transform="rotate(0,0,0)" stroke-linejoin="round" fill="#fff"><path stroke-linecap="butt" stroke-linejoin="round" stroke-width="6" stroke-opacity="1" stroke="rgb(0,0,0)" fill="rgb(0,0,0)" d="m0-84.84c-26.5095 0-48 21.3345-48 47.65125c0 26.3115 21.4815 47.64375 47.98575 47.65125c-8.7165 22.8285-24.97575 43.162499-46.19325 61.854l18.23175 12.529499c28.4775-22.59 75.975-64.5975 75.975-122.04c0-26.31675-21.4905-47.65125-48-47.65125z" /></g></svg></svg>